<?xml version="1.0" standalone="no"?>
<!DOCTYPE svg PUBLIC "-//W3C//DTD SVG 20010904//EN"
 "http://www.w3.org/TR/2001/REC-SVG-20010904/DTD/svg10.dtd">
<svg version="1.0" xmlns="http://www.w3.org/2000/svg"
 width="1786.000000pt" height="1786.000000pt" viewBox="0 0 1786.000000 1786.000000"
 preserveAspectRatio="xMidYMid meet">

<g transform="translate(0.000000,1786.000000) scale(0.100000,-0.100000)"
fill="#000000" stroke="none">
<path d="M2639 16346 c-83 -61 -170 -177 -194 -261 -32 -105 -47 -317 -40
-545 9 -314 70 -821 110 -917 17 -40 62 -69 132 -84 l53 -12 0 -79 c0 -92 21
-204 56 -297 48 -128 101 -181 182 -181 98 0 166 78 202 232 l16 68 33 -80
c18 -44 47 -96 65 -115 67 -71 147 -34 198 92 34 85 33 265 -1 377 -22 70 -23
79 -9 87 9 5 32 25 52 44 33 32 36 39 36 92 0 98 -56 508 -95 697 -40 195 -83
331 -149 471 -110 233 -223 345 -420 414 -118 42 -167 41 -227 -3z m190 -91
c169 -57 252 -137 355 -344 107 -212 168 -464 226 -937 11 -89 20 -180 20
-202 0 -38 -3 -43 -39 -62 -39 -19 -59 -50 -46 -71 15 -24 55 -246 54 -303 0
-58 -25 -140 -56 -191 -13 -20 -13 -20 -34 5 -36 41 -83 150 -71 162 16 16 32
0 32 -32 0 -26 22 -60 39 -60 33 0 60 64 61 142 0 54 -21 62 -139 53 -52 -3
-103 -11 -112 -15 -23 -13 -45 -63 -65 -150 -28 -124 -68 -190 -114 -190 -63
0 -140 209 -140 379 l0 67 76 12 c90 14 112 25 120 58 11 44 -5 49 -164 49
-127 0 -152 3 -187 20 -52 26 -56 43 -100 410 -43 366 -53 642 -31 830 17 148
25 180 60 238 36 63 133 157 160 157 12 0 55 -11 95 -25z m488 -1957 c-3 -7
-5 -2 -5 12 0 14 2 19 5 13 2 -7 2 -19 0 -25z"/>
<path d="M2891 14429 c-61 -66 -50 -269 17 -286 27 -7 57 20 48 44 -3 7 -1 13
4 13 17 0 40 59 40 104 0 53 -14 93 -42 124 -27 27 -42 28 -67 1z m54 -132 c5
-49 4 -71 -5 -83 -21 -25 -30 2 -30 92 0 126 21 121 35 -9z"/>
<path d="M4509 14365 c-8 -18 -14 -77 -15 -146 l-1 -117 -33 -29 -33 -29 22
-215 c84 -819 201 -1262 510 -1926 161 -348 385 -724 650 -1093 135 -188 822
-1112 898 -1208 323 -406 587 -636 908 -793 158 -77 303 -125 630 -210 149
-39 324 -89 390 -111 269 -90 465 -207 641 -383 160 -160 250 -300 472 -733
20 -40 45 -82 55 -92 23 -26 67 -26 74 -1 6 22 107 76 123 66 16 -10 60 23 60
44 0 53 -199 463 -296 608 -134 202 -298 353 -556 514 -223 139 -435 227 -788
326 -107 30 -251 72 -320 94 -480 151 -819 406 -1240 933 -133 165 -753 1003
-894 1206 -511 737 -815 1414 -981 2181 -69 324 -105 551 -105 668 0 135 -16
184 -61 189 -25 3 -27 7 -33 77 -7 82 -28 160 -50 190 -14 19 -15 19 -27 -10z"/>
<path d="M5199 14343 c-6 -16 -13 -54 -16 -85 -5 -52 -9 -60 -39 -77 -19 -11
-36 -31 -40 -46 -14 -55 61 -501 136 -811 195 -807 532 -1572 993 -2258 207
-307 276 -386 312 -356 8 7 15 22 15 34 1 29 63 68 96 60 14 -4 31 -1 39 6 29
24 16 61 -59 164 -554 761 -941 1611 -1146 2519 -38 170 -91 460 -105 580 -7
54 -11 61 -56 100 -41 35 -49 48 -49 77 -1 45 -34 120 -55 120 -8 0 -20 -12
-26 -27z"/>
<path d="M4828 14273 c-6 -16 -13 -54 -16 -85 -4 -52 -7 -59 -38 -77 -19 -12
-36 -31 -40 -47 -9 -34 8 -160 52 -409 174 -966 542 -1869 1092 -2680 198
-293 262 -364 298 -334 30 25 9 73 -104 231 -606 846 -1020 1827 -1191 2823
-44 253 -52 328 -39 337 48 30 70 -10 93 -172 22 -156 78 -432 126 -622 213
-849 591 -1659 1108 -2370 94 -130 124 -155 156 -128 29 24 16 61 -59 164
-554 761 -941 1611 -1146 2519 -38 170 -91 460 -105 580 -7 54 -11 61 -56 100
-41 35 -49 48 -49 77 -1 45 -34 120 -55 120 -8 0 -21 -12 -27 -27z"/>
<path d="M2300 13920 c-109 -19 -198 -73 -237 -145 -43 -79 -7 -222 68 -272
36 -23 46 -25 119 -21 67 4 91 11 157 44 98 49 119 82 117 191 -2 134 -54 214
-137 212 -23 -1 -62 -5 -87 -9z m106 -112 c15 -24 22 -104 13 -139 -8 -30 -16
-39 -52 -53 -23 -9 -45 -16 -47 -16 -3 0 -6 21 -7 47 -1 25 -14 70 -28 98 -14
29 -25 55 -25 58 0 18 135 22 146 5z m-210 -114 c21 -50 17 -124 -7 -124 -17
0 -39 60 -39 108 0 73 19 80 46 16z"/>
<path d="M3457 13660 c-44 -8 -94 -52 -140 -125 l-32 -50 3 -130 c4 -185 34
-314 92 -395 25 -36 25 -40 -2 -40 -49 0 -66 11 -71 43 -2 18 -21 102 -41 187
-44 188 -80 268 -138 307 -23 15 -56 43 -74 61 -29 29 -38 32 -91 32 -128 0
-272 -37 -316 -81 -28 -28 -29 -34 -24 -87 3 -37 38 -145 97 -302 50 -135 109
-306 130 -380 53 -184 148 -582 156 -655 11 -93 29 -105 153 -105 l100 0 11
-57 c17 -88 58 -202 96 -264 37 -62 110 -134 150 -149 70 -27 132 1 165 74 21
47 26 176 8 240 -8 31 -8 41 3 47 30 19 45 10 52 -32 15 -95 101 -201 172
-215 43 -8 85 17 116 70 21 37 23 53 22 156 0 125 -20 235 -60 336 l-25 62 32
33 c17 19 38 42 46 51 21 23 14 59 -42 208 -59 156 -116 353 -209 725 -41 160
-76 302 -80 318 -4 15 -21 43 -39 62 -55 59 -119 75 -220 55z m165 -156 c9
-38 40 -161 68 -274 102 -410 196 -726 260 -874 11 -27 19 -55 16 -62 -3 -8
-21 -20 -41 -28 -38 -16 -53 -39 -37 -59 32 -39 82 -301 82 -428 0 -58 -23
-119 -44 -119 -21 0 -76 58 -105 111 l-24 44 37 -32 c60 -53 96 -40 96 35 0
75 -51 142 -108 142 -61 0 -175 -41 -206 -74 -28 -30 -28 -32 -21 -116 9 -115
8 -110 7 -156 -1 -22 -8 -48 -15 -58 -12 -16 -16 -17 -48 -3 -89 37 -178 194
-198 352 l-6 50 55 31 c53 29 104 93 88 110 -4 3 -35 -5 -70 -19 -82 -32 -154
-47 -232 -47 l-64 0 -7 48 c-10 68 -150 636 -175 706 -25 73 -25 76 1 76 12 0
36 15 54 33 65 65 71 177 14 292 -60 122 -136 163 -214 115 l-32 -20 -22 59
c-11 32 -21 61 -21 64 0 14 213 67 269 67 25 0 39 -11 86 -70 64 -80 74 -106
110 -273 40 -188 72 -245 149 -267 40 -11 53 -10 113 9 85 26 184 81 199 109
6 12 19 31 29 42 17 19 17 26 6 87 -13 69 -51 162 -75 182 -15 12 -15 17 22
-156 l19 -93 -21 -6 c-11 -4 -51 -24 -88 -45 -36 -22 -70 -39 -75 -39 -11 0
-61 169 -78 265 -20 115 -19 223 3 261 35 62 51 76 118 99 89 31 102 24 126
-71z m-715 -288 c43 -49 63 -101 70 -187 4 -43 2 -59 -12 -72 -24 -25 -34 -22
-79 26 -44 45 -64 96 -73 182 -11 101 31 123 94 51z m963 -1370 c0 -28 -17 -8
-25 29 -6 29 -6 29 9 11 9 -11 16 -29 16 -40z m-70 -8 c0 -19 -2 -20 -10 -8
-13 19 -13 30 0 30 6 0 10 -10 10 -22z"/>
<path d="M3421 11891 c-11 -11 -23 -36 -27 -56 -15 -80 94 -224 141 -185 20
17 20 128 0 178 -32 76 -77 100 -114 63z m87 -116 c4 -46 2 -54 -10 -50 -20 8
-48 69 -48 104 0 74 51 27 58 -54z"/>
<path d="M878 13503 c-37 -40 -51 -94 -46 -177 8 -121 72 -234 144 -252 62
-16 108 28 109 102 1 54 7 60 30 34 24 -27 60 -25 82 3 15 21 21 22 46 13 24
-9 31 -8 45 11 15 20 19 20 36 7 26 -19 32 -18 57 7 15 15 24 18 32 10 18 -18
55 -12 74 12 15 20 21 22 44 14 36 -14 58 -3 65 31 4 19 17 35 41 47 41 22 76
68 71 93 -3 15 -17 17 -108 18 -58 1 -118 6 -133 13 -42 16 -78 13 -102 -9
-18 -17 -26 -18 -59 -9 -46 13 -86 5 -86 -17 0 -13 -7 -15 -39 -9 -24 4 -41 2
-46 -4 -4 -8 -12 -8 -25 -1 -11 6 -31 8 -45 4 -15 -4 -25 -2 -25 4 0 6 -15 27
-34 46 -43 46 -90 49 -128 9z m111 -198 c13 -52 15 -76 7 -94 l-10 -23 -18 22
c-33 41 -48 145 -31 210 6 24 7 24 21 -10 8 -19 22 -66 31 -105z m609 120
c-28 -16 -72 -10 -46 6 7 5 27 9 43 8 l30 0 -27 -14z m-258 -98 l0 -30 -26 24
c-33 31 -52 69 -46 94 4 18 8 15 38 -19 22 -26 34 -50 34 -69z m106 9 c5 -29
4 -37 -5 -31 -13 8 -51 88 -51 108 0 27 49 -41 56 -77z m93 25 c-6 -18 -36 9
-44 39 l-7 25 27 -26 c15 -15 26 -32 24 -38z m-316 -5 c8 -12 20 -39 26 -60
l10 -39 -24 23 c-14 13 -25 30 -25 37 0 8 -7 27 -15 43 -13 25 -13 29 -1 24 8
-3 21 -16 29 -28z m-94 -31 c23 -39 23 -39 -13 -25 -20 7 -26 16 -26 40 0 37
11 33 39 -15z"/>
<path d="M2727 11289 c-32 -4 -77 -17 -102 -28 -58 -26 -142 -115 -156 -166
-29 -103 63 -299 164 -352 47 -24 161 -21 229 6 64 25 163 102 175 134 13 39
5 141 -17 201 -26 76 -60 133 -102 173 -39 36 -98 46 -191 32z m144 -130 c36
-51 69 -140 69 -190 0 -37 -5 -50 -27 -71 -28 -26 -84 -58 -101 -58 -5 0 -12
26 -15 58 -6 74 -45 159 -96 215 -23 24 -41 47 -41 50 0 12 65 25 127 26 58 1
63 -1 84 -30z m-256 -103 c51 -51 104 -203 77 -220 -33 -20 -122 125 -122 201
0 49 10 53 45 19z"/>
<path d="M3997 11166 c-78 -29 -113 -88 -105 -176 4 -38 17 -65 75 -146 70
-99 116 -181 152 -273 l20 -48 -74 -42 c-109 -63 -110 -63 -130 1 -44 134
-185 364 -264 431 -128 108 -271 79 -340 -67 -12 -26 -23 -69 -23 -94 -2 -41
4 -55 44 -112 90 -128 290 -498 303 -562 13 -58 59 -149 165 -323 116 -191
366 -628 412 -720 76 -152 161 -294 197 -328 21 -20 54 -63 71 -94 66 -116
299 -461 327 -482 37 -30 98 -24 130 13 46 54 110 322 100 422 -7 71 -53 166
-123 254 -33 41 -72 90 -86 109 l-26 34 21 30 c20 26 107 97 120 97 3 0 36
-53 73 -117 127 -219 268 -384 370 -434 96 -46 205 -41 260 12 50 48 75 166
55 260 -21 96 -101 245 -212 394 -132 177 -199 271 -199 282 0 4 -24 69 -53
144 -51 128 -136 293 -199 386 -15 23 -80 132 -143 243 -124 218 -166 274
-227 311 -30 18 -67 65 -154 194 -229 340 -238 351 -318 386 -64 28 -167 35
-219 15z m154 -97 c57 -19 94 -54 144 -136 27 -43 58 -89 71 -103 12 -14 63
-86 112 -160 57 -85 104 -144 127 -159 53 -36 116 -110 155 -182 40 -76 131
-231 227 -389 91 -148 137 -242 180 -360 19 -52 51 -120 70 -150 80 -123 141
-210 212 -305 93 -125 191 -324 191 -387 -1 -60 -32 -126 -64 -134 -95 -23
-212 57 -345 236 -71 95 -192 291 -186 300 2 4 38 22 80 40 90 39 106 35 181
-42 45 -46 46 -49 17 -34 -91 46 -156 -8 -133 -111 31 -136 168 -293 256 -293
37 0 54 21 54 68 0 40 10 46 36 21 31 -29 54 -19 54 24 0 40 -63 173 -115 242
-55 73 -133 151 -192 192 -49 34 -56 36 -111 31 -121 -11 -325 -124 -408 -226
-36 -44 -44 -61 -39 -81 13 -54 57 -128 116 -196 33 -38 75 -97 91 -130 29
-56 30 -64 25 -140 -6 -77 -34 -204 -60 -267 l-12 -30 -38 54 c-20 30 -37 57
-37 60 0 3 9 8 20 11 41 11 44 46 16 158 -60 239 -168 348 -257 260 l-30 -30
-45 46 c-42 42 -133 191 -214 353 -49 97 -264 473 -373 651 -112 183 -160 276
-175 340 -6 25 -32 84 -57 132 l-46 86 30 15 c38 20 66 90 58 146 -6 50 -55
154 -91 197 -30 36 -90 57 -130 47 -13 -3 -34 -17 -47 -30 l-23 -24 -18 27
c-10 16 -18 38 -18 51 0 51 60 122 103 122 79 0 203 -152 307 -376 45 -98 102
-174 130 -174 10 0 45 18 77 39 54 36 143 88 234 138 28 15 67 23 135 28 79 6
96 11 105 27 13 25 -3 51 -87 138 -34 36 -79 94 -100 130 -54 94 -81 126 -119
144 -39 19 -75 13 -101 -15 -17 -19 -17 -87 1 -134 4 -11 -20 20 -54 69 -66
96 -75 132 -41 166 23 23 95 27 151 9z m8 -133 c57 -30 131 -138 131 -191 0
-23 -3 -25 -22 -20 -65 19 -148 130 -148 197 0 32 2 33 39 14z m42 -240 c41
-26 87 -36 114 -26 21 8 28 4 55 -30 22 -28 28 -41 18 -44 -24 -7 -163 -36
-170 -36 -5 0 -8 6 -8 13 0 7 -18 50 -40 96 -46 95 -49 107 -17 70 12 -15 34
-34 48 -43z m-591 -119 c31 -63 37 -107 20 -153 -13 -33 -17 -29 -69 66 -42
77 -50 124 -30 161 10 20 11 20 30 3 10 -9 32 -44 49 -77z m1725 -1589 c31
-37 105 -171 105 -192 0 -19 -35 0 -79 44 -52 52 -101 141 -101 185 0 22 3 24
19 15 11 -5 36 -29 56 -52z m-644 -305 c39 -33 119 -194 119 -240 0 -69 -56
-30 -138 96 -41 62 -53 112 -36 155 8 22 17 20 55 -11z"/>
<path d="M1478 10893 c-38 -41 -51 -94 -46 -180 6 -92 54 -194 108 -231 73
-49 144 -8 145 83 1 55 7 61 30 35 24 -27 60 -25 82 3 15 21 21 22 46 13 24
-9 31 -8 45 11 15 20 19 20 36 7 26 -19 32 -18 57 7 15 15 24 18 32 10 18 -18
55 -12 74 12 15 20 21 22 44 14 36 -14 58 -3 65 31 4 19 17 35 41 47 41 22 76
68 71 93 -3 15 -17 17 -108 18 -58 1 -118 6 -133 13 -42 16 -78 13 -102 -9
-18 -17 -26 -18 -59 -9 -46 13 -86 5 -86 -17 0 -13 -7 -15 -39 -9 -24 4 -41 2
-46 -4 -4 -8 -12 -8 -25 -1 -11 6 -31 8 -45 4 -15 -4 -25 -2 -25 4 0 6 -15 27
-34 46 -43 46 -90 49 -128 9z m111 -198 c13 -52 15 -76 7 -94 l-10 -23 -18 22
c-33 41 -48 145 -31 210 6 24 7 24 21 -10 8 -19 22 -66 31 -105z m609 120
c-28 -16 -72 -10 -46 6 7 5 27 9 43 8 l30 0 -27 -14z m-258 -98 l0 -30 -26 24
c-33 31 -52 69 -46 94 4 18 8 15 38 -19 22 -26 34 -50 34 -69z m106 9 c5 -29
4 -37 -5 -31 -13 8 -51 88 -51 108 0 27 49 -41 56 -77z m93 25 c-6 -18 -36 9
-44 39 l-7 25 27 -26 c15 -15 26 -32 24 -38z m-312 -11 c6 -8 16 -32 22 -53
l9 -39 -24 23 c-13 12 -24 29 -24 36 0 8 -7 28 -17 46 -16 31 -16 32 3 17 10
-8 24 -22 31 -30z m-98 -25 c23 -39 23 -39 -13 -25 -20 7 -26 16 -26 40 0 37
11 33 39 -15z"/>
<path d="M6145 8341 c-49 -30 -114 -108 -146 -174 -16 -34 -29 -68 -29 -75 0
-8 -3 -12 -7 -10 -5 2 -29 14 -55 27 -42 22 -51 23 -87 12 -49 -14 -151 -106
-187 -166 -41 -70 -58 -142 -58 -240 1 -152 58 -312 149 -412 l45 -51 -34
-113 c-51 -168 -96 -337 -96 -360 0 -11 27 -53 61 -92 75 -89 181 -246 424
-627 502 -787 1035 -1563 1330 -1935 39 -49 87 -115 107 -145 56 -84 214 -240
243 -240 7 0 174 79 371 175 198 96 373 178 389 181 22 4 54 -6 125 -39 52
-25 136 -60 185 -78 80 -29 102 -33 195 -33 127 -1 261 32 286 69 8 12 33 80
55 151 l41 129 -17 85 c-28 148 -87 247 -207 344 -70 58 -194 129 -253 146
-38 11 -44 16 -40 34 3 11 23 98 45 192 22 94 58 265 80 380 23 115 46 233 51
262 l11 54 22 -21 c12 -11 64 -35 116 -52 105 -34 160 -35 253 -3 122 42 148
125 185 604 8 102 7 122 -10 179 -18 57 -29 74 -106 151 -98 97 -212 177 -299
210 -112 42 -310 36 -448 -14 l-62 -22 -289 72 c-159 39 -395 103 -524 142
-129 38 -279 80 -333 93 l-99 23 -68 71 c-89 92 -135 148 -330 405 -245 323
-369 470 -395 470 -18 0 -161 -75 -203 -107 -18 -14 -36 -23 -39 -20 -2 3 -17
41 -32 85 -48 137 -124 257 -182 287 -38 20 -98 19 -134 -4z m110 -103 c35
-41 96 -166 125 -252 25 -75 53 -111 94 -122 26 -6 44 2 170 80 33 20 65 36
71 36 14 0 140 -153 315 -385 242 -320 390 -494 439 -519 14 -7 73 -26 131
-40 58 -15 218 -61 355 -102 138 -40 354 -99 480 -129 127 -31 251 -63 277
-72 47 -16 48 -16 150 16 135 42 260 51 352 27 101 -28 248 -133 351 -252 l47
-55 -12 -127 c-42 -463 -47 -490 -110 -526 -73 -43 -242 -15 -318 52 l-30 27
23 114 c32 150 29 144 67 136 56 -12 90 -35 175 -117 45 -44 86 -77 92 -73 33
20 -9 98 -93 172 -64 56 -122 83 -180 83 -43 0 -117 -27 -130 -48 -5 -8 -48
-223 -137 -682 -16 -85 -52 -250 -79 -367 -60 -253 -61 -272 -19 -307 17 -14
39 -26 49 -26 57 0 204 -84 288 -164 85 -80 123 -152 141 -265 8 -51 6 -66
-28 -166 l-36 -110 -70 -17 c-38 -9 -94 -17 -124 -17 l-54 -1 23 25 c19 20 22
31 17 66 -7 50 -37 85 -96 111 -49 22 -91 19 -153 -13 -37 -19 -64 -61 -52
-80 9 -16 -15 -10 -65 15 -27 14 -71 28 -98 32 -62 8 -111 -12 -508 -207
l-289 -142 -49 54 c-26 30 -64 77 -83 104 -19 28 -93 124 -165 215 -310 394
-782 1084 -1354 1980 -205 322 -247 384 -342 507 -35 45 -63 89 -63 98 0 26
81 308 154 534 l66 204 60 63 c68 70 78 106 36 126 -14 6 -30 24 -37 40 -7 17
-41 59 -76 95 -66 67 -146 113 -197 113 -29 0 -29 0 -10 21 34 38 71 51 108
39 39 -13 121 -97 226 -233 41 -53 83 -99 93 -103 32 -10 172 81 188 122 20
53 -70 231 -166 329 l-54 55 26 30 c32 38 55 38 88 -2z m-87 -153 c43 -46 132
-188 132 -209 0 -3 -6 -6 -13 -6 -7 0 -19 16 -26 35 -19 53 -58 75 -130 75
l-61 0 0 49 c0 57 17 111 35 111 7 0 36 -25 63 -55z m8 -206 c18 -36 22 -55
15 -62 -6 -6 -12 -9 -14 -6 -15 19 -67 107 -67 112 0 4 9 7 20 7 14 0 28 -16
46 -51z m-335 -4 c39 -28 139 -150 139 -171 0 -5 -13 -23 -29 -38 l-29 -28
-25 55 c-26 57 -65 89 -123 101 -44 10 -80 -8 -104 -51 l-21 -38 6 63 c7 74
16 102 41 127 25 25 93 15 145 -20z m-49 -162 c25 -29 36 -55 43 -105 7 -47 7
-48 -18 -48 -33 0 -64 33 -77 82 -20 71 13 115 52 71z m6 -239 l40 -6 -21 -61
-20 -60 -20 24 c-21 26 -87 153 -87 168 0 5 15 -6 34 -25 22 -22 47 -35 74
-40z m3142 -3324 c12 -8 12 -10 -5 -9 -11 0 -29 4 -40 9 -18 8 -18 9 5 9 14 0
32 -4 40 -9z"/>
<path d="M6140 7275 c0 -16 75 -150 118 -211 115 -163 217 -238 130 -96 -84
138 -248 340 -248 307z"/>
<path d="M6667 6573 c-14 -13 -6 -34 59 -150 91 -164 157 -273 469 -778 150
-242 362 -588 472 -770 362 -599 375 -618 404 -599 19 11 8 50 -35 118 -24 39
-148 252 -275 473 -313 547 -657 1108 -903 1475 -152 227 -172 251 -191 231z"/>
<path d="M9233 6040 c-12 -5 -29 -20 -38 -34 -48 -73 69 -199 166 -179 34 6
79 55 79 84 0 34 -40 99 -73 119 -34 21 -96 25 -134 10z m92 -90 c27 -30 11
-35 -21 -6 -21 18 -24 25 -13 26 9 0 24 -9 34 -20z"/>
<path d="M8660 4400 c-68 -17 -216 -72 -280 -106 -79 -42 -168 -106 -154 -111
13 -4 307 96 409 140 107 45 117 45 234 -7 93 -41 152 -77 315 -192 53 -37 74
-42 82 -19 25 64 -149 215 -319 280 -56 21 -84 25 -160 24 -50 -1 -108 -5
-127 -9z"/>
<path d="M4444 7732 c-132 -53 -219 -130 -237 -209 -18 -78 -13 -180 12 -245
43 -112 145 -222 234 -255 18 -6 65 -12 105 -12 58 -1 84 4 125 24 65 30 177
122 206 168 19 32 21 42 13 113 -20 172 -124 354 -234 410 -77 39 -138 40
-224 6z m148 -84 c22 -6 57 -29 79 -51 44 -45 102 -156 120 -232 6 -27 16 -61
21 -74 8 -22 4 -30 -44 -72 -29 -27 -55 -48 -58 -49 -3 0 -11 32 -17 71 -21
137 -115 275 -228 336 l-57 30 64 26 c74 31 70 30 120 15z m-176 -164 c44 -21
115 -100 144 -161 31 -63 38 -154 16 -188 -66 -100 -279 110 -281 276 0 33 6
63 14 72 17 21 63 22 107 1z"/>
<path d="M9853 7279 c-13 -4 -23 -13 -23 -19 0 -5 -16 -16 -35 -24 -19 -8 -38
-22 -41 -31 -3 -8 -16 -15 -29 -15 -22 0 -55 -28 -55 -47 0 -25 54 -125 74
-139 29 -18 54 -9 62 22 4 17 13 24 30 24 13 0 28 9 35 21 8 15 14 18 22 10
18 -18 46 -13 62 13 15 22 14 29 -12 96 -31 80 -55 103 -90 89z"/>
<path d="M10497 7046 c-56 -15 -124 -76 -157 -140 -15 -30 -136 -675 -445
-2371 -234 -1282 -430 -2354 -436 -2383 -11 -53 -11 -54 -72 -82 -34 -15 -70
-30 -79 -33 -59 -20 -135 -291 -169 -608 -14 -134 -5 -200 39 -282 99 -185
454 -339 747 -324 55 3 123 12 152 21 69 22 133 71 160 124 12 24 26 48 31 55
22 27 132 592 132 679 0 52 -22 91 -91 163 l-58 61 134 824 c73 454 235 1455
360 2225 124 770 237 1462 249 1538 l23 138 -38 77 c-82 165 -175 258 -299
300 -80 27 -129 32 -183 18z"/>
<path d="M3138 7003 c-37 -40 -51 -94 -46 -177 8 -121 72 -234 144 -252 62
-16 108 28 109 102 1 54 7 60 30 34 24 -27 60 -25 82 3 15 21 21 22 46 13 24
-9 31 -8 45 11 15 20 19 20 36 7 26 -19 32 -18 57 7 15 15 24 18 32 10 18 -18
55 -12 74 12 15 20 21 22 44 14 36 -14 58 -3 65 31 4 19 17 35 41 47 41 22 76
68 71 93 -3 15 -17 17 -108 18 -58 1 -118 6 -133 13 -42 16 -78 13 -102 -9
-18 -17 -26 -18 -59 -9 -46 13 -86 5 -86 -17 0 -13 -7 -15 -39 -9 -24 4 -41 2
-46 -4 -4 -8 -12 -8 -25 -1 -11 6 -31 8 -45 4 -15 -4 -25 -2 -25 4 0 6 -15 27
-34 46 -43 46 -90 49 -128 9z m111 -198 c13 -52 15 -76 7 -94 l-10 -23 -18 22
c-33 41 -48 145 -31 210 6 24 7 24 21 -10 8 -19 22 -66 31 -105z m609 120
c-28 -16 -72 -10 -46 6 7 5 27 9 43 8 l30 0 -27 -14z m-258 -98 l0 -30 -26 24
c-33 31 -52 69 -46 94 4 18 8 15 38 -19 22 -26 34 -50 34 -69z m106 9 c5 -29
4 -37 -5 -31 -13 8 -51 88 -51 108 0 27 49 -41 56 -77z m93 25 c-6 -18 -36 9
-44 39 l-7 25 27 -26 c15 -15 26 -32 24 -38z m-312 -11 c6 -8 16 -32 22 -53
l9 -39 -24 23 c-13 12 -24 29 -24 36 0 8 -7 28 -17 46 -16 31 -16 32 3 17 10
-8 24 -22 31 -30z m-98 -25 c23 -39 23 -39 -13 -25 -20 7 -26 16 -26 40 0 37
11 33 39 -15z"/>
<path d="M9960 6975 c-7 -8 -30 -18 -52 -21 -21 -4 -41 -11 -44 -15 -3 -5 -14
-9 -24 -9 -11 0 -27 -11 -35 -24 -15 -22 -14 -29 10 -92 45 -119 73 -141 113
-89 11 14 24 25 29 25 6 0 18 9 28 20 12 13 25 17 44 14 19 -4 32 0 46 16 19
21 19 22 -4 88 -12 37 -30 75 -38 85 -20 21 -56 22 -73 2z"/>
</g>
</svg>
