<?xml version="1.0" encoding="UTF-8"?>
<!DOCTYPE svg PUBLIC "-//W3C//DTD SVG 1.1//EN" "http://www.w3.org/Graphics/SVG/1.1/DTD/svg11.dtd">
<svg xmlns="http://www.w3.org/2000/svg" version="1.1" width="1786px" height="1786px" style="shape-rendering:geometricPrecision; text-rendering:geometricPrecision; image-rendering:optimizeQuality; fill-rule:evenodd; clip-rule:evenodd" xmlns:xlink="http://www.w3.org/1999/xlink">
<g><path style="opacity:0.946" fill="#222122" d="M 267.5,146.5 C 293.438,147.717 312.605,159.717 325,182.5C 337.105,206.63 344.605,231.964 347.5,258.5C 350.021,274.246 352.021,290.079 353.5,306C 353.584,309.62 353.084,313.12 352,316.5C 349.291,319.378 346.458,322.044 343.5,324.5C 351.772,342.161 351.272,359.494 342,376.5C 335.003,384.871 328.336,384.871 322,376.5C 319.818,372.136 317.651,367.802 315.5,363.5C 313.911,371.51 310.578,378.676 305.5,385C 295.46,393.185 286.627,392.018 279,381.5C 270.967,366.505 267.467,350.505 268.5,333.5C 263.183,332.839 258.183,331.172 253.5,328.5C 251.378,326.549 249.878,324.215 249,321.5C 239.463,276.21 236.796,230.543 241,184.5C 244.682,168.101 253.516,155.434 267.5,146.5 Z M 291.5,349.5 C 293.309,354.041 293.475,358.708 292,363.5C 291.501,358.845 291.334,354.179 291.5,349.5 Z"/></g>
<g><path style="opacity:1" fill="#e6d1a5" d="M 270.5,157.5 C 285.346,159.174 297.846,165.507 308,176.5C 324.01,201.858 333.676,229.525 337,259.5C 339.907,277.081 341.574,294.748 342,312.5C 339.913,313.794 337.746,314.961 335.5,316C 334.427,317.313 333.76,318.813 333.5,320.5C 339.384,333.991 340.884,347.991 338,362.5C 336.725,364.717 335.725,367.051 335,369.5C 334.28,371.255 333.113,372.089 331.5,372C 327.026,366.551 324.026,360.385 322.5,353.5C 323.833,353.5 325.167,353.5 326.5,353.5C 326.508,356.545 326.841,359.545 327.5,362.5C 329.792,362.756 331.959,362.423 334,361.5C 336.343,356.398 337.01,351.064 336,345.5C 333.205,344.06 330.205,343.393 327,343.5C 322.159,343.927 317.326,344.427 312.5,345C 310.094,346.622 308.261,348.789 307,351.5C 305.459,360.216 302.793,368.549 299,376.5C 296.627,379.302 293.793,379.969 290.5,378.5C 284.727,370.426 281.227,361.426 280,351.5C 279.501,345.509 279.334,339.509 279.5,333.5C 284.887,333.595 290.22,333.095 295.5,332C 298.689,330.456 299.855,327.956 299,324.5C 297.527,322.993 295.693,322.326 293.5,322.5C 285.518,323.532 277.518,323.699 269.5,323C 266.202,322.513 263.202,321.347 260.5,319.5C 258.427,312.971 256.927,306.304 256,299.5C 254.22,280.807 252.22,262.14 250,243.5C 248.938,223.765 249.605,204.099 252,184.5C 252.91,179.349 254.91,174.682 258,170.5C 262.191,166.05 266.358,161.716 270.5,157.5 Z M 291.5,349.5 C 291.334,354.179 291.501,358.845 292,363.5C 293.475,358.708 293.309,354.041 291.5,349.5 Z"/></g>
<g><path style="opacity:0.922" fill="#272526" d="M 289.5,340.5 C 296.54,342.027 299.874,346.527 299.5,354C 299.333,355.833 299.167,357.667 299,359.5C 297.617,362.859 296.284,366.193 295,369.5C 292.034,372.265 289.367,371.932 287,368.5C 283.027,358.639 283.86,349.306 289.5,340.5 Z M 291.5,349.5 C 291.334,354.179 291.501,358.845 292,363.5C 293.475,358.708 293.309,354.041 291.5,349.5 Z"/></g>
<g><path style="opacity:0.945" fill="#231f21" d="M 589.5,694.5 C 590.433,697.37 592.1,699.704 594.5,701.5C 594.427,703.027 595.094,704.027 596.5,704.5C 596.5,705.167 596.833,705.5 597.5,705.5C 597.427,707.027 598.094,708.027 599.5,708.5C 599.5,709.167 599.833,709.5 600.5,709.5C 600.427,711.027 601.094,712.027 602.5,712.5C 602.738,714.404 603.738,715.738 605.5,716.5C 628.99,749.837 653.49,782.504 679,814.5C 698.524,837.642 721.024,857.142 746.5,873C 773.199,886.567 801.199,896.567 830.5,903C 868.527,913.344 902.527,931.01 932.5,956C 950.514,973.869 964.681,994.369 975,1017.5C 979.347,1026.83 983.18,1036.33 986.5,1046C 985.71,1051.4 982.71,1053.23 977.5,1051.5C 967.712,1024.92 954.545,1000.25 938,977.5C 910.621,949.894 878.455,930.061 841.5,918C 819.675,912.128 798.008,905.795 776.5,899C 736.331,883.85 702.498,859.684 675,826.5C 635.54,776.907 597.54,726.24 561,674.5C 523.025,619.209 494.691,559.209 476,494.5C 469.104,466.354 463.104,438.02 458,409.5C 457.5,400.84 457.334,392.173 457.5,383.5C 456.167,383.5 454.833,383.5 453.5,383.5C 456.189,453.816 472.023,520.816 501,584.5C 520.794,626.112 544.127,665.445 571,702.5C 597.667,738.5 624.333,774.5 651,810.5C 665.682,829.857 681.849,848.023 699.5,865C 721.618,884.732 746.951,899.066 775.5,908C 802.684,914.88 829.684,922.547 856.5,931C 895.45,946.056 924.95,971.889 945,1008.5C 953.231,1024.3 961.398,1039.97 969.5,1055.5C 966.417,1061.82 962.584,1062.49 958,1057.5C 946.019,1032.19 932.019,1008.19 916,985.5C 901.59,968.567 884.423,955.4 864.5,946C 851.307,940.168 837.807,935.335 824,931.5C 797.534,926.009 771.7,918.509 746.5,909C 720.819,896.564 697.986,880.064 678,859.5C 657.227,836.597 637.894,812.597 620,787.5C 599.333,759.5 578.667,731.5 558,703.5C 517.56,647.959 486.56,587.292 465,521.5C 451.252,474.69 443.919,427.023 443,378.5C 444.973,377.36 446.807,376.027 448.5,374.5C 447.372,367.884 447.205,361.218 448,354.5C 448.396,351.304 449.562,348.47 451.5,346C 452.167,345.333 452.833,345.333 453.5,346C 457.693,354.647 459.693,363.813 459.5,373.5C 463.994,373.163 466.828,375.163 468,379.5C 473.958,466.192 498.624,547.526 542,623.5C 556.369,648.266 572.202,671.932 589.5,694.5 Z"/></g>
<g><path style="opacity:0.943" fill="#212022" d="M 662.5,705.5 C 635.088,667.716 610.922,627.716 590,585.5C 558.282,519.671 537.616,450.338 528,377.5C 525.123,373.836 522.29,373.669 519.5,377C 536.254,500.295 582.254,611.128 657.5,709.5C 656.919,715.453 653.919,717.287 648.5,715C 595.66,647.498 556.827,572.331 532,489.5C 521.158,452.458 513.325,414.791 508.5,376.5C 508.155,370.527 510.822,366.86 516.5,365.5C 515.994,359.545 516.994,353.878 519.5,348.5C 520.723,347.386 522.056,347.219 523.5,348C 527.245,352.78 529.245,358.28 529.5,364.5C 532.537,367.039 535.37,369.706 538,372.5C 554.211,492.496 598.544,600.829 671,697.5C 672.109,704.561 669.276,707.227 662.5,705.5 Z"/></g>
<g><path style="opacity:0.942" fill="#222122" d="M 626.5,713.5 C 553.392,615.873 508.225,506.207 491,384.5C 488.804,381.875 485.97,380.875 482.5,381.5C 498.249,505.426 543.915,616.759 619.5,715.5C 619.662,717.527 619.495,719.527 619,721.5C 618.261,722.574 617.261,723.241 616,723.5C 611.812,722.136 608.312,719.803 605.5,716.5C 605.262,714.596 604.262,713.262 602.5,712.5C 602.573,710.973 601.906,709.973 600.5,709.5C 599.833,709.5 599.5,709.167 599.5,708.5C 599.573,706.973 598.906,705.973 597.5,705.5C 596.833,705.5 596.5,705.167 596.5,704.5C 596.573,702.973 595.906,701.973 594.5,701.5C 593.567,698.63 591.9,696.296 589.5,694.5C 529.384,606.036 490.884,508.703 474,402.5C 472.388,394.556 471.721,386.556 472,378.5C 473.512,375.143 476.012,373.143 479.5,372.5C 478.994,366.545 479.994,360.878 482.5,355.5C 486.928,354.705 489.761,356.705 491,361.5C 491.176,364.882 491.676,368.215 492.5,371.5C 495.703,373.838 498.537,376.504 501,379.5C 517.337,499.059 561.67,607.393 634,704.5C 635.32,710.68 632.82,713.68 626.5,713.5 Z"/></g>
<g><path style="opacity:0.999" fill="#2e653f" d="M 662.5,705.5 C 661.421,707.543 659.754,708.876 657.5,709.5C 582.254,611.128 536.254,500.295 519.5,377C 522.29,373.669 525.123,373.836 528,377.5C 537.616,450.338 558.282,519.671 590,585.5C 610.922,627.716 635.088,667.716 662.5,705.5 Z"/></g>
<g><path style="opacity:0.999" fill="#d7d534" d="M 626.5,713.5 C 624.167,714.167 621.833,714.833 619.5,715.5C 543.915,616.759 498.249,505.426 482.5,381.5C 485.97,380.875 488.804,381.875 491,384.5C 508.225,506.207 553.392,615.873 626.5,713.5 Z"/></g>
<g><path style="opacity:0.942" fill="#212022" d="M 232.5,391.5 C 244.532,390.258 251.365,395.591 253,407.5C 253.851,413.253 253.517,418.92 252,424.5C 251.117,427.102 249.617,429.269 247.5,431C 242.029,433.715 236.362,436.049 230.5,438C 209.326,440.156 200.493,430.656 204,409.5C 206.442,405.059 209.608,401.226 213.5,398C 219.59,394.738 225.924,392.571 232.5,391.5 Z"/></g>
<g><path style="opacity:1" fill="#adadac" d="M 230.5,402.5 C 233.978,402.184 237.312,402.684 240.5,404C 243.142,410.273 242.976,416.439 240,422.5C 236.863,423.161 234.03,424.495 231.5,426.5C 231.931,418.515 229.598,411.515 224.5,405.5C 226.594,404.482 228.594,403.482 230.5,402.5 Z"/></g>
<g><path style="opacity:0.999" fill="#bf1305" d="M 977.5,1051.5 C 975.535,1054.01 972.868,1055.35 969.5,1055.5C 961.398,1039.97 953.231,1024.3 945,1008.5C 924.95,971.889 895.45,946.056 856.5,931C 829.684,922.547 802.684,914.88 775.5,908C 746.951,899.066 721.618,884.732 699.5,865C 681.849,848.023 665.682,829.857 651,810.5C 624.333,774.5 597.667,738.5 571,702.5C 544.127,665.445 520.794,626.112 501,584.5C 472.023,520.816 456.189,453.816 453.5,383.5C 454.833,383.5 456.167,383.5 457.5,383.5C 457.334,392.173 457.5,400.84 458,409.5C 463.104,438.02 469.104,466.354 476,494.5C 494.691,559.209 523.025,619.209 561,674.5C 597.54,726.24 635.54,776.907 675,826.5C 702.498,859.684 736.331,883.85 776.5,899C 798.008,905.795 819.675,912.128 841.5,918C 878.455,930.061 910.621,949.894 938,977.5C 954.545,1000.25 967.712,1024.92 977.5,1051.5 Z"/></g>
<g><path style="opacity:1" fill="#a7a7a6" d="M 214.5,411.5 C 217.518,412.353 219.351,414.353 220,417.5C 220.667,420.5 220.667,423.5 220,426.5C 219.692,427.308 219.192,427.975 218.5,428.5C 213.688,423.703 212.354,418.036 214.5,411.5 Z"/></g>
<g><path style="opacity:0.938" fill="#222123" d="M 348.5,417.5 C 357.857,416.594 365.357,419.927 371,427.5C 378.53,457.953 386.53,488.287 395,518.5C 398.385,529.993 402.552,541.16 407.5,552C 405.365,555.48 403.198,558.98 401,562.5C 399.745,563.211 398.579,564.044 397.5,565C 404.318,580.094 407.152,595.927 406,612.5C 403.255,627.626 395.422,631.459 382.5,624C 376.334,618.167 373.001,611 372.5,602.5C 370.654,602.222 369.32,602.889 368.5,604.5C 373.461,616.504 372.127,627.671 364.5,638C 357.442,641.619 350.775,640.952 344.5,636C 333.143,624.117 326.477,609.95 324.5,593.5C 319.281,592.196 314.114,592.196 309,593.5C 305.862,592.597 303.195,590.93 301,588.5C 295.642,563.383 289.642,538.383 283,513.5C 276.061,492.682 268.728,472.015 261,451.5C 260.333,447.833 260.333,444.167 261,440.5C 264.793,436.016 269.626,433.183 275.5,432C 284.39,429.799 293.39,429.132 302.5,430C 305.024,433.606 308.357,436.272 312.5,438C 317.373,442.249 320.873,447.416 323,453.5C 325.849,466.276 329.016,478.942 332.5,491.5C 334.432,492.52 336.432,492.687 338.5,492C 333.591,486.014 330.425,479.18 329,471.5C 327.544,460.533 326.877,449.533 327,438.5C 329.437,431.804 333.271,425.97 338.5,421C 341.776,419.308 345.109,418.141 348.5,417.5 Z M 282.5,460.5 C 283.873,460.343 285.207,460.51 286.5,461C 295.571,469.561 297.904,479.394 293.5,490.5C 283.519,482.897 279.852,472.897 282.5,460.5 Z M 345.5,599.5 C 348.763,602.797 349.929,606.797 349,611.5C 346.051,608.05 344.884,604.05 345.5,599.5 Z"/></g>
<g><path style="opacity:1" fill="#e5d0a4" d="M 354.5,425.5 C 357.315,426.324 359.482,427.991 361,430.5C 367.89,460.392 375.556,490.059 384,519.5C 387.718,531.992 392.218,544.158 397.5,556C 395.044,557.711 392.377,559.044 389.5,560C 388.426,560.739 387.759,561.739 387.5,563C 392.62,573.519 395.453,584.685 396,596.5C 397.126,604.045 396.46,611.379 394,618.5C 390.742,619.555 388.076,618.555 386,615.5C 384.167,612.5 382.333,609.5 380.5,606.5C 380.667,606.167 380.833,605.833 381,605.5C 382.845,608.183 385.345,609.85 388.5,610.5C 390.029,610.471 391.196,609.804 392,608.5C 394.101,595.276 388.601,589.11 375.5,590C 372.343,591.578 369.009,592.578 365.5,593C 362.667,594.5 360.5,596.667 359,599.5C 359.411,609.149 359.411,618.816 359,628.5C 358.388,631.032 356.888,631.865 354.5,631C 346.49,626.654 340.99,620.154 338,611.5C 334.897,604.152 333.397,596.485 333.5,588.5C 337.358,587.904 340.691,586.238 343.5,583.5C 345.905,581.358 347.238,578.691 347.5,575.5C 340.549,577.761 333.549,579.928 326.5,582C 321.177,582.499 315.844,582.666 310.5,582.5C 305.234,554.838 298.567,527.505 290.5,500.5C 296.433,499.068 300.266,495.401 302,489.5C 305.186,474.746 300.686,462.913 288.5,454C 283.785,452.621 279.785,453.621 276.5,457C 275.833,457.667 275.167,457.667 274.5,457C 273.291,452.724 272.124,448.557 271,444.5C 280.462,440.608 290.295,438.774 300.5,439C 305.435,443.932 309.601,449.432 313,455.5C 315.692,468.036 319.025,480.37 323,492.5C 325.656,497.45 329.823,500.117 335.5,500.5C 345.483,498.256 354.649,494.256 363,488.5C 363.536,486.131 364.703,484.131 366.5,482.5C 367.652,479.894 367.818,477.227 367,474.5C 365.83,467.791 363.163,461.791 359,456.5C 360.756,464.712 361.756,473.046 362,481.5C 356,484.917 349.833,487.917 343.5,490.5C 337.856,473.632 335.356,456.299 336,438.5C 338.167,435.667 340.333,432.833 342.5,430C 346.571,428.37 350.571,426.87 354.5,425.5 Z M 345.5,599.5 C 344.884,604.05 346.051,608.05 349,611.5C 349.929,606.797 348.763,602.797 345.5,599.5 Z"/></g>
<g><path style="opacity:0.928" fill="#222123" d="M 89.5,431.5 C 96.7176,430.87 101.884,433.87 105,440.5C 109.797,440.413 114.63,440.413 119.5,440.5C 123.397,435.847 128.063,435.18 133.5,438.5C 134.868,435.463 137.202,434.13 140.5,434.5C 144.486,434.997 148.319,435.997 152,437.5C 157.351,436.675 162.685,436.342 168,436.5C 171.779,438.279 172.445,440.946 170,444.5C 167.603,447.4 164.77,449.733 161.5,451.5C 160.227,457.632 156.727,459.632 151,457.5C 148.115,461.278 144.449,462.278 140,460.5C 138.263,461.62 136.429,462.62 134.5,463.5C 131.712,461.324 129.379,461.491 127.5,464C 125.559,464.743 123.726,464.576 122,463.5C 118.577,468.885 114.577,469.551 110,465.5C 109.732,470.997 107.566,475.497 103.5,479C 96.8075,480.573 91.6408,478.406 88,472.5C 81.5753,462.256 79.9086,451.256 83,439.5C 84.3046,436.039 86.4713,433.372 89.5,431.5 Z"/></g>
<g><path style="opacity:1" fill="#9e9e9e" d="M 153.5,441.5 C 156.187,441.336 158.854,441.503 161.5,442C 159.726,442.97 157.893,443.804 156,444.5C 154.251,444.252 153.418,443.252 153.5,441.5 Z"/></g>
<g><path style="opacity:1" fill="#a9a9a8" d="M 93.5,441.5 C 94.7899,442.058 95.6232,443.058 96,444.5C 97.6267,450.3 99.1267,456.134 100.5,462C 99.2869,463.63 98.4536,465.464 98,467.5C 92.6111,459.523 91.1111,450.856 93.5,441.5 Z"/></g>
<g><path style="opacity:1" fill="#a8a8a7" d="M 126.5,442.5 C 131.88,445.259 134.046,449.592 133,455.5C 128.083,452.334 125.916,448.001 126.5,442.5 Z"/></g>
<g><path style="opacity:1" fill="#a2a2a1" d="M 137.5,443.5 C 143.274,445.462 145.441,449.462 144,455.5C 143,454.5 142,453.5 141,452.5C 140.362,449.236 139.196,446.236 137.5,443.5 Z"/></g>
<g><path style="opacity:1" fill="#a4a4a3" d="M 147.5,444.5 C 147.897,443.475 148.563,443.308 149.5,444C 150.667,445.167 151.833,446.333 153,447.5C 153.749,448.635 153.583,449.635 152.5,450.5C 150.348,448.838 148.682,446.838 147.5,444.5 Z"/></g>
<g><path style="opacity:1" fill="#a0a0a0" d="M 108.5,448.5 C 111.766,451.238 113.933,454.571 115,458.5C 113.491,456.081 111.325,455.081 108.5,455.5C 108.5,453.167 108.5,450.833 108.5,448.5 Z"/></g>
<g><path style="opacity:1" fill="#a2a2a1" d="M 117.5,446.5 C 119.371,446.859 120.871,447.859 122,449.5C 123.548,452.206 124.714,455.04 125.5,458C 123.924,458.388 122.591,457.888 121.5,456.5C 120.695,452.9 119.362,449.566 117.5,446.5 Z"/></g>
<g><path style="opacity:0.913" fill="#272526" d="M 342.5,594.5 C 348.549,595.035 352.382,598.368 354,604.5C 354.667,609.167 354.667,613.833 354,618.5C 353.388,621.032 351.888,621.865 349.5,621C 341.866,615.897 338.366,608.73 339,599.5C 340.176,597.804 341.343,596.138 342.5,594.5 Z M 345.5,599.5 C 344.884,604.05 346.051,608.05 349,611.5C 349.929,606.797 348.763,602.797 345.5,599.5 Z"/></g>
<g><path style="opacity:0.95" fill="#222123" d="M 276.5,654.5 C 280.56,654.485 284.56,654.985 288.5,656C 302.561,668.011 307.228,682.845 302.5,700.5C 291.125,712.593 277.459,716.426 261.5,712C 251.542,703.924 245.876,693.424 244.5,680.5C 244.896,676.581 246.063,672.914 248,669.5C 255.368,660.4 264.868,655.4 276.5,654.5 Z"/></g>
<g><path style="opacity:1" fill="#b2b2b1" d="M 269.5,666.5 C 274.511,666.334 279.511,666.501 284.5,667C 291.543,674.463 294.376,683.296 293,693.5C 289.473,697.846 284.973,700.512 279.5,701.5C 279.762,688.69 275.096,678.023 265.5,669.5C 266.624,668.141 267.958,667.141 269.5,666.5 Z"/></g>
<g><path style="opacity:0.945" fill="#222123" d="M 401.5,666.5 C 414.395,665.035 425.229,669.035 434,678.5C 444.06,692.896 453.726,707.562 463,722.5C 468.374,726.361 473.374,730.694 478,735.5C 490.15,757.131 502.816,778.464 516,799.5C 522.644,812.436 528.311,825.769 533,839.5C 542.333,852.167 551.667,864.833 561,877.5C 565.627,885.043 569.294,893.043 572,901.5C 574.422,911.194 573.422,920.527 569,929.5C 563.585,934.825 557.252,937.159 550,936.5C 545.379,934.89 540.879,933.057 536.5,931C 519.258,916.025 505.758,898.192 496,877.5C 490.869,880.298 486.702,884.131 483.5,889C 488.268,896.106 493.435,902.939 499,909.5C 507.102,922.308 508.769,935.975 504,950.5C 502.062,957.648 499.729,964.648 497,971.5C 489.36,977.504 482.694,976.504 477,968.5C 465.834,952.173 455.168,935.506 445,918.5C 441.667,916.5 439,913.833 437,910.5C 417.184,872.19 395.851,834.856 373,798.5C 361.81,769.452 347.477,742.118 330,716.5C 327.929,703.811 332.429,694.311 343.5,688C 350.941,685.639 357.941,686.639 364.5,691C 379.138,704.932 389.472,721.599 395.5,741C 401.327,739.081 406.66,736.081 411.5,732C 409.354,725.208 406.521,718.708 403,712.5C 397.609,705.441 392.609,698.107 388,690.5C 385.589,678.299 390.089,670.299 401.5,666.5 Z M 412.5,692.5 C 415.854,693.261 418.687,694.928 421,697.5C 431.138,713.891 429.471,715.891 416,703.5C 414.143,700.046 412.977,696.379 412.5,692.5 Z M 353.5,719.5 C 360.923,726.001 363.423,734.001 361,743.5C 356.39,737.779 353.557,731.279 352.5,724C 353.148,722.56 353.481,721.06 353.5,719.5 Z M 541.5,904.5 C 533.245,899.414 528.412,892.08 527,882.5C 534.046,888.379 538.88,895.712 541.5,904.5 Z M 464.5,915.5 C 467.527,917.264 470.027,919.598 472,922.5C 474.607,927.38 476.94,932.38 479,937.5C 479.808,939.579 479.641,941.579 478.5,943.5C 477.252,942.96 476.085,942.293 475,941.5C 469.843,935.511 466.01,928.844 463.5,921.5C 463.672,919.452 464.005,917.452 464.5,915.5 Z"/></g>
<g><path style="opacity:1" fill="#adadac" d="M 256.5,677.5 C 260.33,678.485 263.163,680.819 265,684.5C 268.655,689.964 270.155,695.964 269.5,702.5C 266.386,701.909 263.886,700.242 262,697.5C 260.333,694.167 258.667,690.833 257,687.5C 256.502,684.183 256.335,680.85 256.5,677.5 Z"/></g>
<g><path style="opacity:0.932" fill="#222123" d="M 149.5,692.5 C 156.718,691.87 161.884,694.87 165,701.5C 169.797,701.413 174.63,701.413 179.5,701.5C 183.397,696.847 188.063,696.18 193.5,699.5C 194.868,696.463 197.202,695.13 200.5,695.5C 204.486,695.997 208.319,696.997 212,698.5C 217.351,697.675 222.685,697.342 228,697.5C 230.283,697.949 231.783,699.283 232.5,701.5C 230.404,706.719 226.737,710.386 221.5,712.5C 220.131,718.888 216.465,720.888 210.5,718.5C 207.85,722.332 204.35,723.332 200,721.5C 198.263,722.62 196.429,723.62 194.5,724.5C 191.712,722.324 189.379,722.491 187.5,725C 185.432,725.687 183.432,725.52 181.5,724.5C 178.186,729.574 174.353,730.241 170,726.5C 169.466,730.768 168.133,734.768 166,738.5C 158.594,742.232 152.594,740.565 148,733.5C 141.575,723.256 139.909,712.256 143,700.5C 144.305,697.039 146.471,694.372 149.5,692.5 Z"/></g>
<g><path style="opacity:1" fill="#e6d1a5" d="M 544.5,873.5 C 544.672,874.492 544.338,875.158 543.5,875.5C 538.296,869.129 532.296,863.629 525.5,859C 520.953,857.455 516.287,857.121 511.5,858C 496.17,862.903 483.336,871.403 473,883.5C 472.113,888.072 472.78,892.405 475,896.5C 478.854,902.2 483.188,907.533 488,912.5C 490.602,916.706 492.936,921.039 495,925.5C 495.569,939.094 493.235,952.094 488,964.5C 485.5,960.833 483,957.167 480.5,953.5C 484.163,952.336 486.163,949.836 486.5,946C 485.084,933.745 480.917,922.579 474,912.5C 467.276,905.544 461.109,905.877 455.5,913.5C 453.172,910.34 450.339,907.673 447,905.5C 424.5,863.674 401.167,822.341 377,781.5C 375.592,777.943 374.592,774.276 374,770.5C 370.579,764.658 367.412,758.658 364.5,752.5C 371.877,748.743 374.71,742.743 373,734.5C 371.456,726.91 367.956,720.41 362.5,715C 358.814,712.545 354.814,711.545 350.5,712C 348.309,713.919 345.976,715.253 343.5,716C 338.733,708.729 340.067,702.729 347.5,698C 352.419,697.286 356.753,698.619 360.5,702C 364.714,706.546 368.547,711.379 372,716.5C 377.667,727.167 383.333,737.833 389,748.5C 390.711,751.58 393.211,752.746 396.5,752C 406.334,746.251 416.001,740.251 425.5,734C 433.309,732.421 441.143,731.254 449,730.5C 449.667,728.5 449.667,726.5 449,724.5C 444.7,719.199 440.034,714.199 435,709.5C 431.228,702.732 427.061,696.232 422.5,690C 417.399,686.573 412.565,686.74 408,690.5C 407.521,695.3 407.854,699.966 409,704.5C 405.724,698.892 402.057,693.558 398,688.5C 396.773,684.409 397.606,680.909 400.5,678C 408.119,676.451 415.119,677.784 421.5,682C 433.112,696.947 443.945,712.447 454,728.5C 457.747,732.918 462.08,736.584 467,739.5C 480.667,762.167 494.333,784.833 508,807.5C 512.862,818.418 517.528,829.418 522,840.5C 529.015,851.876 536.515,862.876 544.5,873.5 Z M 412.5,692.5 C 412.977,696.379 414.143,700.046 416,703.5C 429.471,715.891 431.138,713.891 421,697.5C 418.687,694.928 415.854,693.261 412.5,692.5 Z"/></g>
<g><path style="opacity:1" fill="#a5a5a4" d="M 214.5,702.5 C 222.659,701.998 223.159,702.998 216,705.5C 213.72,705.106 213.22,704.106 214.5,702.5 Z"/></g>
<g><path style="opacity:1" fill="#a9a9a8" d="M 153.5,702.5 C 154.79,703.058 155.623,704.058 156,705.5C 157.627,711.3 159.127,717.134 160.5,723C 159.287,724.63 158.454,726.464 158,728.5C 152.611,720.523 151.111,711.856 153.5,702.5 Z"/></g>
<g><path style="opacity:1" fill="#a8a8a7" d="M 186.5,703.5 C 191.88,706.259 194.046,710.592 193,716.5C 188.083,713.334 185.916,709.001 186.5,703.5 Z"/></g>
<g><path style="opacity:1" fill="#a2a2a1" d="M 197.5,704.5 C 203.274,706.462 205.441,710.462 204,716.5C 203,715.5 202,714.5 201,713.5C 200.362,710.236 199.196,707.236 197.5,704.5 Z"/></g>
<g><path style="opacity:1" fill="#a4a4a3" d="M 207.5,705.5 C 207.897,704.475 208.563,704.308 209.5,705C 210.667,706.167 211.833,707.333 213,708.5C 213.749,709.635 213.583,710.635 212.5,711.5C 210.348,709.838 208.682,707.838 207.5,705.5 Z"/></g>
<g><path style="opacity:1" fill="#a0a0a0" d="M 168.5,709.5 C 171.766,712.238 173.933,715.571 175,719.5C 173.491,717.081 171.325,716.081 168.5,716.5C 168.5,714.167 168.5,711.833 168.5,709.5 Z"/></g>
<g><path style="opacity:1" fill="#a2a2a1" d="M 177.5,707.5 C 179.371,707.859 180.871,708.859 182,710.5C 183.948,713.64 184.948,716.973 185,720.5C 183.926,719.382 182.76,718.382 181.5,717.5C 180.695,713.9 179.362,710.566 177.5,707.5 Z"/></g>
<g><path style="opacity:1" fill="#d7c49b" d="M 410.5,706.5 C 413.971,710.803 417.971,714.636 422.5,718C 425.894,718.752 429.227,718.585 432.5,717.5C 435.688,719.854 438.355,722.688 440.5,726C 433.735,726.72 427.068,727.887 420.5,729.5C 420.657,728.127 420.49,726.793 420,725.5C 416.807,719.114 413.64,712.78 410.5,706.5 Z"/></g>
<g><path style="opacity:1" fill="#d9c59c" d="M 543.5,875.5 C 544.338,875.158 544.672,874.492 544.5,873.5C 552.187,883.531 558.354,894.531 563,906.5C 564.127,912.864 562.961,918.698 559.5,924C 554.044,926.099 548.711,925.766 543.5,923C 538.871,920.095 534.704,916.595 531,912.5C 520.66,899.821 511.493,886.321 503.5,872C 508.446,868.694 513.779,866.194 519.5,864.5C 524.996,866.823 529.83,870.156 534,874.5C 534.667,875.167 534.667,875.833 534,876.5C 521.67,870.163 516.67,873.83 519,887.5C 522.815,900.633 530.815,909.966 543,915.5C 545.145,915.604 546.979,914.937 548.5,913.5C 549.262,909.889 549.762,906.222 550,902.5C 556.33,911.168 558.997,910.168 558,899.5C 554.133,890.826 549.3,882.826 543.5,875.5 Z M 541.5,904.5 C 538.88,895.712 534.046,888.379 527,882.5C 528.412,892.08 533.245,899.414 541.5,904.5 Z"/></g>
<g><path style="opacity:0.951" fill="#232123" d="M 616.5,948.5 C 624.787,947.559 631.287,950.559 636,957.5C 641.409,966.984 646.242,976.651 650.5,986.5C 657.333,981.332 664.833,977.332 673,974.5C 674.225,974.862 675.391,975.362 676.5,976C 697.096,1000.59 716.929,1025.76 736,1051.5C 741.134,1057.64 746.634,1063.47 752.5,1069C 793.542,1080.72 834.708,1091.88 876,1102.5C 900.295,1091.49 923.462,1093.32 945.5,1108C 953.022,1114.52 960.189,1121.36 967,1128.5C 968.937,1133.63 970.437,1138.8 971.5,1144C 969.956,1160.16 968.456,1176.33 967,1192.5C 964.869,1209.13 955.369,1217.46 938.5,1217.5C 929.269,1216.54 920.602,1213.88 912.5,1209.5C 907.119,1238.57 900.786,1267.41 893.5,1296C 914.485,1302.67 930.319,1315.5 941,1334.5C 943.555,1341.27 945.055,1348.27 945.5,1355.5C 943.063,1364.18 940.563,1372.85 938,1381.5C 935.813,1386.1 932.48,1388.43 928,1388.5C 915.389,1393.16 902.555,1393.66 889.5,1390C 878.852,1386.12 868.686,1381.29 859,1375.5C 833.482,1387.01 808.315,1399.18 783.5,1412C 781.833,1412.67 780.167,1412.67 778.5,1412C 772.072,1407.58 766.239,1402.41 761,1396.5C 746.667,1377.5 732.333,1358.5 718,1339.5C 669.929,1271.04 623.596,1201.37 579,1130.5C 573.167,1122.83 567.333,1115.17 561.5,1107.5C 565.939,1091.91 570.605,1076.41 575.5,1061C 554.959,1039.2 550.792,1014.7 563,987.5C 568.311,979.602 575.477,974.269 584.5,971.5C 588.48,972.218 592.146,973.384 595.5,975C 599.417,963.598 606.417,954.764 616.5,948.5 Z M 617.5,1002.5 C 615.752,999.569 613.752,996.736 611.5,994C 612.449,993.383 613.282,993.549 614,994.5C 615.993,996.818 617.159,999.484 617.5,1002.5 Z M 574.5,1013.5 C 577.019,1013.85 578.853,1015.18 580,1017.5C 581.261,1021.06 582.094,1024.73 582.5,1028.5C 580.278,1028.82 578.444,1028.16 577,1026.5C 574.143,1022.46 573.309,1018.13 574.5,1013.5 Z"/></g>
<g><path style="opacity:1" fill="#e7d2a6" d="M 618.5,958.5 C 622.147,958.622 624.981,960.288 627,963.5C 632.859,974.382 638.026,985.549 642.5,997C 644.914,998.885 647.581,999.552 650.5,999C 656.5,995.333 662.5,991.667 668.5,988C 669.833,987.333 671.167,987.333 672.5,988C 690.382,1010.21 707.882,1032.71 725,1055.5C 732.191,1063.69 739.691,1071.52 747.5,1079C 788.9,1091.19 830.567,1102.53 872.5,1113C 874.5,1113.67 876.5,1113.67 878.5,1113C 904.218,1101.14 927.218,1104.81 947.5,1124C 952.034,1128.2 956.201,1132.7 960,1137.5C 959.099,1154.49 957.766,1171.49 956,1188.5C 955.996,1200.5 949.996,1206.5 938,1206.5C 928.29,1206 920.123,1202.33 913.5,1195.5C 915.298,1187.18 916.964,1178.84 918.5,1170.5C 925.804,1171.15 932.137,1173.99 937.5,1179C 940.464,1182.97 943.797,1186.63 947.5,1190C 948.449,1190.62 949.282,1190.45 950,1189.5C 950.667,1187.83 950.667,1186.17 950,1184.5C 945.061,1176.23 938.228,1170.06 929.5,1166C 921.869,1163.11 915.036,1164.28 909,1169.5C 900.743,1212.29 891.909,1254.95 882.5,1297.5C 882.151,1301.67 883.818,1304.84 887.5,1307C 904.365,1310.68 917.865,1319.52 928,1333.5C 931.558,1340.06 933.724,1347.06 934.5,1354.5C 932.455,1361.81 930.288,1369.14 928,1376.5C 919.982,1380.31 911.482,1381.81 902.5,1381C 908.186,1374.47 907.52,1368.47 900.5,1363C 892.101,1359.04 884.268,1359.87 877,1365.5C 876.167,1367.5 875.333,1369.5 874.5,1371.5C 866.057,1365.57 857.057,1364.41 847.5,1368C 824.962,1379.27 802.295,1389.94 779.5,1400C 752.798,1367.97 727.631,1334.8 704,1300.5C 666.338,1245.18 629.672,1189.18 594,1132.5C 587.909,1123.99 581.576,1115.65 575,1107.5C 575.054,1099.98 576.387,1092.65 579,1085.5C 584.465,1067.44 590.131,1049.44 596,1031.5C 599.667,1027.83 603.333,1024.17 607,1020.5C 609.727,1016.07 608.727,1013.07 604,1011.5C 597.532,998.179 587.032,990.012 572.5,987C 576.604,980.316 581.938,978.982 588.5,983C 590.043,984.878 591.876,986.378 594,987.5C 601.122,996.957 608.622,1006.12 616.5,1015C 622.999,1013.33 628.832,1010.16 634,1005.5C 635.504,1001.96 635.837,998.295 635,994.5C 630.016,982.837 622.849,972.837 613.5,964.5C 615.19,962.481 616.856,960.481 618.5,958.5 Z M 617.5,1002.5 C 617.159,999.484 615.993,996.818 614,994.5C 613.282,993.549 612.449,993.383 611.5,994C 613.752,996.736 615.752,999.569 617.5,1002.5 Z"/></g>
<g><path style="opacity:1" fill="#d9c59c" d="M 608.5,971.5 C 614.019,974.177 618.519,978.177 622,983.5C 624.754,988.008 627.254,992.674 629.5,997.5C 628.675,998.386 627.675,998.719 626.5,998.5C 626.135,994.263 624.135,991.096 620.5,989C 615.964,987.621 611.297,987.121 606.5,987.5C 606.069,981.977 606.736,976.644 608.5,971.5 Z"/></g>
<g><path style="opacity:1" fill="#dfcba0" d="M 566.5,1011.5 C 565.527,1009.05 565.194,1006.39 565.5,1003.5C 566.236,995.274 570.569,992.44 578.5,995C 587.21,999.378 593.544,1006.04 597.5,1015C 596.056,1017.45 594.222,1019.62 592,1021.5C 589.214,1010.87 582.38,1005.7 571.5,1006C 568.944,1007.05 567.277,1008.89 566.5,1011.5 Z"/></g>
<g><path style="opacity:0.951" fill="#222123" d="M 450.5,1008.5 C 459.883,1007.96 467.883,1010.96 474.5,1017.5C 486.29,1030.71 491.79,1046.04 491,1063.5C 484.202,1073.62 475.035,1080.79 463.5,1085C 453.742,1086.91 444.742,1085.24 436.5,1080C 419.959,1066.71 414.459,1049.88 420,1029.5C 423.167,1023.67 427.667,1019.17 433.5,1016C 439.06,1012.99 444.727,1010.49 450.5,1008.5 Z"/></g>
<g><path style="opacity:0.982" fill="#857a64" d="M 565.5,1003.5 C 565.194,1006.39 565.527,1009.05 566.5,1011.5C 566.509,1013.31 566.009,1014.98 565,1016.5C 564.186,1011.98 564.353,1007.65 565.5,1003.5 Z"/></g>
<g><path style="opacity:1" fill="#b1b1b0" d="M 451.5,1019.5 C 458.531,1019.57 464.364,1022.23 469,1027.5C 475.391,1036.95 479.557,1047.28 481.5,1058.5C 478.457,1062.54 474.791,1065.88 470.5,1068.5C 468.608,1048.34 458.608,1034.01 440.5,1025.5C 443.98,1023.12 447.647,1021.12 451.5,1019.5 Z"/></g>
<g><path style="opacity:1" fill="#b3b3b2" d="M 431.5,1035.5 C 438.491,1035 444.325,1037.33 449,1042.5C 453.027,1047.22 456.027,1052.55 458,1058.5C 459.047,1063.76 458.547,1068.76 456.5,1073.5C 452.262,1074.97 448.262,1074.47 444.5,1072C 433.808,1063.78 428.641,1052.95 429,1039.5C 429.662,1038.02 430.496,1036.68 431.5,1035.5 Z"/></g>
<g><path style="opacity:1" fill="#d8c59c" d="M 567.5,1028.5 C 569.592,1032.43 572.592,1035.59 576.5,1038C 578.473,1038.5 580.473,1038.66 582.5,1038.5C 582.266,1042.77 581.099,1046.77 579,1050.5C 573.846,1043.86 570.012,1036.52 567.5,1028.5 Z"/></g>
<g><path style="opacity:0.896" fill="#221f21" d="M 988.5,1078.5 C 985.318,1072.47 982.985,1066.14 981.5,1059.5C 983.714,1055.72 986.714,1054.89 990.5,1057C 993.514,1062.21 995.847,1067.71 997.5,1073.5C 996.328,1078.58 993.328,1080.25 988.5,1078.5 Z"/></g>
<g><path style="opacity:0.995" fill="#2d2b2a" d="M 612.5,1055.5 C 623.285,1066.79 632.785,1079.13 641,1092.5C 641.781,1093.94 641.614,1095.28 640.5,1096.5C 628.022,1085.01 618.689,1071.35 612.5,1055.5 Z"/></g>
<g><path style="opacity:0.939" fill="#c21204" d="M 981.5,1059.5 C 982.985,1066.14 985.318,1072.47 988.5,1078.5C 987.077,1080.54 985.077,1081.54 982.5,1081.5C 980.05,1075.94 977.05,1070.61 973.5,1065.5C 974.978,1062.08 977.645,1060.08 981.5,1059.5 Z"/></g>
<g><path style="opacity:0.879" fill="#241f21" d="M 973.5,1065.5 C 977.05,1070.61 980.05,1075.94 982.5,1081.5C 979.899,1087.73 976.066,1088.73 971,1084.5C 969.068,1080.2 967.234,1075.87 965.5,1071.5C 966.178,1066.82 968.845,1064.82 973.5,1065.5 Z"/></g>
<g><path style="opacity:0.95" fill="#212022" d="M 1052.5,1078.5 C 1068.75,1079.37 1081.58,1086.37 1091,1099.5C 1095.36,1106.21 1099.19,1113.21 1102.5,1120.5C 1076.94,1277.53 1051.27,1434.53 1025.5,1591.5C 1031.05,1596.95 1035.89,1602.95 1040,1609.5C 1038.28,1634.16 1034.28,1658.5 1028,1682.5C 1025.9,1687.44 1023.07,1691.94 1019.5,1696C 1006.59,1703.85 992.594,1706.52 977.5,1704C 955.754,1701.65 936.92,1693.15 921,1678.5C 911.681,1665.9 909.014,1651.9 913,1636.5C 914.838,1618.97 918.838,1601.97 925,1585.5C 925.956,1584.42 926.789,1583.25 927.5,1582C 932.5,1579.83 937.5,1577.67 942.5,1575.5C 972.363,1417.68 1001.53,1259.68 1030,1101.5C 1033.03,1089.31 1040.53,1081.64 1052.5,1078.5 Z"/></g>
<g><path style="opacity:0.928" fill="#222123" d="M 315.5,1081.5 C 322.718,1080.87 327.884,1083.87 331,1090.5C 335.797,1090.41 340.63,1090.41 345.5,1090.5C 349.397,1085.85 354.063,1085.18 359.5,1088.5C 360.868,1085.46 363.202,1084.13 366.5,1084.5C 370.486,1085 374.319,1086 378,1087.5C 383.351,1086.68 388.685,1086.34 394,1086.5C 397.779,1088.28 398.445,1090.95 396,1094.5C 393.572,1097.6 390.572,1099.93 387,1101.5C 386.106,1107.74 382.773,1109.74 377,1107.5C 374.115,1111.28 370.449,1112.28 366,1110.5C 364.263,1111.62 362.429,1112.62 360.5,1113.5C 358.941,1112.93 357.441,1112.26 356,1111.5C 353.6,1115.16 350.766,1115.83 347.5,1113.5C 344.331,1117.93 340.498,1118.6 336,1115.5C 332.781,1131.8 325.447,1134.13 314,1122.5C 307.575,1112.26 305.909,1101.26 309,1089.5C 310.305,1086.04 312.471,1083.37 315.5,1081.5 Z"/></g>
<g><path style="opacity:0.895" fill="#211f21" d="M 1000.5,1107.5 C 997.632,1101.43 995.632,1095.1 994.5,1088.5C 995.148,1086.41 996.648,1085.41 999,1085.5C 1001.03,1085.86 1002.87,1086.69 1004.5,1088C 1007.25,1093.57 1008.75,1099.4 1009,1105.5C 1006.59,1108.31 1003.76,1108.98 1000.5,1107.5 Z"/></g>
<g><path style="opacity:0.954" fill="#bf1305" d="M 994.5,1088.5 C 995.632,1095.1 997.632,1101.43 1000.5,1107.5C 999.318,1110.01 997.318,1111.34 994.5,1111.5C 992.778,1104.06 989.445,1097.39 984.5,1091.5C 987.329,1089.02 990.662,1088.02 994.5,1088.5 Z"/></g>
<g><path style="opacity:1" fill="#514c4e" d="M 1049.5,1090.5 C 1060.43,1089.76 1069.93,1093.09 1078,1100.5C 1081.92,1106 1085.58,1111.66 1089,1117.5C 1089.67,1122.5 1089.67,1127.5 1089,1132.5C 1064.23,1283.57 1039.56,1434.57 1015,1585.5C 997.359,1572.56 977.859,1568.23 956.5,1572.5C 956.167,1571.5 955.833,1570.5 955.5,1569.5C 983.887,1412.73 1012.72,1256.07 1042,1099.5C 1044.33,1096.33 1046.83,1093.33 1049.5,1090.5 Z"/></g>
<g><path style="opacity:1" fill="#9e9e9e" d="M 379.5,1091.5 C 382.187,1091.34 384.854,1091.5 387.5,1092C 385.726,1092.97 383.893,1093.8 382,1094.5C 380.251,1094.25 379.418,1093.25 379.5,1091.5 Z"/></g>
<g><path style="opacity:0.912" fill="#231f20" d="M 984.5,1091.5 C 989.445,1097.39 992.778,1104.06 994.5,1111.5C 992.245,1116.61 988.745,1117.61 984,1114.5C 981.537,1108.95 979.371,1103.28 977.5,1097.5C 978.024,1093.4 980.358,1091.4 984.5,1091.5 Z"/></g>
<g><path style="opacity:1" fill="#aaaaa9" d="M 319.5,1091.5 C 320.79,1092.06 321.623,1093.06 322,1094.5C 323.627,1100.3 325.127,1106.13 326.5,1112C 325.683,1113.49 324.85,1114.99 324,1116.5C 321.587,1113.94 319.92,1110.94 319,1107.5C 318.219,1102.08 318.385,1096.75 319.5,1091.5 Z"/></g>
<g><path style="opacity:1" fill="#a8a8a7" d="M 352.5,1092.5 C 357.88,1095.26 360.046,1099.59 359,1105.5C 354.083,1102.33 351.916,1098 352.5,1092.5 Z"/></g>
<g><path style="opacity:1" fill="#a2a2a1" d="M 363.5,1093.5 C 369.274,1095.46 371.441,1099.46 370,1105.5C 369,1104.5 368,1103.5 367,1102.5C 366.362,1099.24 365.196,1096.24 363.5,1093.5 Z"/></g>
<g><path style="opacity:1" fill="#a5a4a4" d="M 373.5,1094.5 C 373.897,1093.47 374.563,1093.31 375.5,1094C 376.667,1095.17 377.833,1096.33 379,1097.5C 379.749,1098.64 379.583,1099.64 378.5,1100.5C 376.348,1098.84 374.682,1096.84 373.5,1094.5 Z"/></g>
<g><path style="opacity:1" fill="#a0a0a0" d="M 334.5,1098.5 C 337.766,1101.24 339.933,1104.57 341,1108.5C 339.491,1106.08 337.325,1105.08 334.5,1105.5C 334.5,1103.17 334.5,1100.83 334.5,1098.5 Z"/></g>
<g><path style="opacity:1" fill="#a2a2a1" d="M 343.5,1096.5 C 345.371,1096.86 346.871,1097.86 348,1099.5C 349.948,1102.64 350.948,1105.97 351,1109.5C 349.926,1108.38 348.76,1107.38 347.5,1106.5C 346.695,1102.9 345.362,1099.57 343.5,1096.5 Z"/></g>
<g><path style="opacity:0.998" fill="#262525" d="M 666.5,1127.5 C 667.675,1127.28 668.675,1127.61 669.5,1128.5C 693.997,1164.15 717.497,1200.49 740,1237.5C 761.748,1275.33 783.748,1313 806,1350.5C 807.252,1353.01 807.752,1355.68 807.5,1358.5C 805.856,1358.71 804.356,1358.38 803,1357.5C 768.917,1301.67 734.584,1246 700,1190.5C 687.608,1170.89 676.108,1150.72 665.5,1130C 665.743,1129.1 666.077,1128.26 666.5,1127.5 Z"/></g>
<g><path style="opacity:0.979" fill="#242224" d="M 924.5,1180.5 C 935.099,1179.12 941.432,1183.62 943.5,1194C 941.015,1201.91 935.682,1204.58 927.5,1202C 921.072,1198.3 917.905,1192.8 918,1185.5C 919.805,1183.17 921.972,1181.51 924.5,1180.5 Z"/></g>
<g><path style="opacity:0.997" fill="#272526" d="M 866.5,1344.5 C 890.993,1342.67 910.826,1351.33 926,1370.5C 926.667,1372.17 926.667,1373.83 926,1375.5C 924.951,1376.52 923.784,1376.68 922.5,1376C 914.659,1370.91 906.992,1365.58 899.5,1360C 891.256,1355.79 882.756,1352.29 874,1349.5C 856.671,1356.09 839.171,1361.93 821.5,1367C 834.945,1356.28 849.945,1348.78 866.5,1344.5 Z"/></g>
<g><path style="opacity:1" fill="#514c4e" d="M 965.5,1580.5 C 991.835,1580.92 1013,1591.58 1029,1612.5C 1028.89,1619.52 1028.22,1626.52 1027,1633.5C 1024.85,1644.61 1022.51,1655.61 1020,1666.5C 1009.41,1654.44 996.243,1646.27 980.5,1642C 966.442,1637.82 952.109,1636.49 937.5,1638C 932.893,1638.73 928.559,1640.23 924.5,1642.5C 924.447,1625.07 927.78,1608.23 934.5,1592C 943.969,1585.68 954.302,1581.85 965.5,1580.5 Z"/></g>
<g><path style="opacity:0.989" fill="#232123" d="M 942.5,1598.5 C 943.748,1607.95 942.582,1617.28 939,1626.5C 937.994,1629.89 935.994,1630.89 933,1629.5C 933.842,1618.47 937.009,1608.13 942.5,1598.5 Z"/></g>
<g><path style="opacity:0.992" fill="#232224" d="M 953.5,1598.5 C 954.765,1599.51 955.431,1601.01 955.5,1603C 954.375,1610.67 952.541,1618.17 950,1625.5C 948.994,1628.89 946.994,1629.89 944,1628.5C 943.649,1621.54 944.982,1614.87 948,1608.5C 950.112,1605.27 951.945,1601.94 953.5,1598.5 Z"/></g>
<g><path style="opacity:0.982" fill="#262527" d="M 961.5,1607.5 C 962.147,1608.27 962.48,1609.27 962.5,1610.5C 961.779,1615.61 960.612,1620.61 959,1625.5C 958.311,1626.36 957.478,1627.02 956.5,1627.5C 955.369,1625.93 955.202,1624.26 956,1622.5C 957.56,1617.31 959.393,1612.31 961.5,1607.5 Z"/></g>
<g><path style="opacity:1" fill="#514c4e" d="M 938.5,1647.5 C 962.698,1645.45 984.698,1651.29 1004.5,1665C 1009.17,1668.66 1012.67,1673.16 1015,1678.5C 1015.96,1682.42 1014.79,1685.59 1011.5,1688C 1004.06,1692.19 996.058,1694.02 987.5,1693.5C 964.43,1693.21 944.596,1685.21 928,1669.5C 922.179,1663.25 922.345,1657.42 928.5,1652C 931.815,1650.17 935.149,1648.67 938.5,1647.5 Z"/></g>
</svg>
